<svg xmlns="http://www.w3.org/2000/svg" style="display:none">
  <!-- Line-icon sprite · 24x24 grid · 1.5px stroke · ink color -->
  <symbol id="i-point" viewBox="0 0 24 24">
    <g fill="none" stroke="currentColor" stroke-width="1.5" stroke-linecap="round" stroke-linejoin="round">
      <path d="M3 17h8l8-7"/><path d="M3 13h9"/><circle cx="19" cy="10" r="1.6"/><path d="M3 20h18"/>
    </g>
  </symbol>
  <symbol id="i-track" viewBox="0 0 24 24">
    <g fill="none" stroke="currentColor" stroke-width="1.5" stroke-linecap="round" stroke-linejoin="round">
      <path d="M3 8h18M3 16h18"/><path d="M6 8v8M10 8v8M14 8v8M18 8v8"/><path d="M12 8V4m0 0h4"/>
    </g>
  </symbol>
  <symbol id="i-signal" viewBox="0 0 24 24">
    <g fill="none" stroke="currentColor" stroke-width="1.5" stroke-linecap="round" stroke-linejoin="round">
      <rect x="8" y="3" width="8" height="13" rx="3.5"/><circle cx="12" cy="7" r="1.4"/><circle cx="12" cy="12" r="1.4"/><path d="M12 16v5M9 21h6"/>
    </g>
  </symbol>
  <symbol id="i-power" viewBox="0 0 24 24">
    <g fill="none" stroke="currentColor" stroke-width="1.5" stroke-linecap="round" stroke-linejoin="round">
      <path d="M13 3 5 13h5l-1 8 8-10h-5l1-8z"/>
    </g>
  </symbol>
  <symbol id="i-shield-bolt" viewBox="0 0 24 24">
    <g fill="none" stroke="currentColor" stroke-width="1.5" stroke-linecap="round" stroke-linejoin="round">
      <path d="M12 3 5 6v5c0 4.4 3 7.6 7 9 4-1.4 7-4.6 7-9V6l-7-3z"/><path d="M12.5 8 10 12h3l-2 4"/>
    </g>
  </symbol>
  <symbol id="i-room" viewBox="0 0 24 24">
    <g fill="none" stroke="currentColor" stroke-width="1.5" stroke-linecap="round" stroke-linejoin="round">
      <path d="M4 20V9l8-5 8 5v11"/><path d="M4 20h16M9 20v-6h6v6"/><path d="M12 4v3"/>
    </g>
  </symbol>
  <symbol id="i-sensor" viewBox="0 0 24 24">
    <g fill="none" stroke="currentColor" stroke-width="1.5" stroke-linecap="round" stroke-linejoin="round">
      <circle cx="12" cy="12" r="3"/><path d="M7.5 7.5a6.4 6.4 0 0 0 0 9M16.5 7.5a6.4 6.4 0 0 1 0 9M4.8 4.8a10.3 10.3 0 0 0 0 14.4M19.2 4.8a10.3 10.3 0 0 1 0 14.4"/>
    </g>
  </symbol>
  <symbol id="i-gateway" viewBox="0 0 24 24">
    <g fill="none" stroke="currentColor" stroke-width="1.5" stroke-linecap="round" stroke-linejoin="round">
      <rect x="4" y="8" width="16" height="9" rx="2"/><circle cx="8" cy="12.5" r="1"/><circle cx="12" cy="12.5" r="1"/><path d="M16 12.5h1.5M8 8V5m8 3V5M6 17v3m12-3v3"/>
    </g>
  </symbol>
  <symbol id="i-antenna" viewBox="0 0 24 24">
    <g fill="none" stroke="currentColor" stroke-width="1.5" stroke-linecap="round" stroke-linejoin="round">
      <path d="M12 21V10"/><circle cx="12" cy="7" r="2"/><path d="M7.5 4.5a6.4 6.4 0 0 0 0 5M16.5 4.5a6.4 6.4 0 0 1 0 5M8 21h8"/>
    </g>
  </symbol>
  <symbol id="i-broker" viewBox="0 0 24 24">
    <g fill="none" stroke="currentColor" stroke-width="1.5" stroke-linecap="round" stroke-linejoin="round">
      <rect x="4" y="4" width="16" height="6" rx="1.5"/><rect x="4" y="14" width="16" height="6" rx="1.5"/><circle cx="7.5" cy="7" r="1"/><circle cx="7.5" cy="17" r="1"/><path d="M12 10v4"/>
    </g>
  </symbol>
  <symbol id="i-cloud" viewBox="0 0 24 24">
    <g fill="none" stroke="currentColor" stroke-width="1.5" stroke-linecap="round" stroke-linejoin="round">
      <path d="M7 18a4 4 0 0 1-.6-7.95A5.5 5.5 0 0 1 17 8.6 3.75 3.75 0 0 1 17.5 18H7z"/>
    </g>
  </symbol>
  <symbol id="i-dashboard" viewBox="0 0 24 24">
    <g fill="none" stroke="currentColor" stroke-width="1.5" stroke-linecap="round" stroke-linejoin="round">
      <rect x="3" y="4" width="18" height="14" rx="2"/><path d="M3 9h18M8 4v5"/><path d="M7 14l2.5-2 2 2 3.5-3"/><path d="M9 21h6"/>
    </g>
  </symbol>
  <symbol id="i-phone" viewBox="0 0 24 24">
    <g fill="none" stroke="currentColor" stroke-width="1.5" stroke-linecap="round" stroke-linejoin="round">
      <rect x="7" y="3" width="10" height="18" rx="2.5"/><path d="M11 18h2"/>
    </g>
  </symbol>
  <symbol id="i-shield" viewBox="0 0 24 24">
    <g fill="none" stroke="currentColor" stroke-width="1.5" stroke-linecap="round" stroke-linejoin="round">
      <path d="M12 3 5 6v5c0 4.4 3 7.6 7 9 4-1.4 7-4.6 7-9V6l-7-3z"/><path d="m9 12 2 2 4-4"/>
    </g>
  </symbol>
  <symbol id="i-clock" viewBox="0 0 24 24">
    <g fill="none" stroke="currentColor" stroke-width="1.5" stroke-linecap="round" stroke-linejoin="round">
      <circle cx="12" cy="12" r="8.5"/><path d="M12 7v5l3.5 2"/>
    </g>
  </symbol>
  <symbol id="i-gauge" viewBox="0 0 24 24">
    <g fill="none" stroke="currentColor" stroke-width="1.5" stroke-linecap="round" stroke-linejoin="round">
      <path d="M4 14a8 8 0 1 1 16 0"/><path d="M12 14l3.5-4"/><circle cx="12" cy="14" r="1.4"/><path d="M4 17h16"/>
    </g>
  </symbol>
  <symbol id="i-file-json" viewBox="0 0 24 24">
    <g fill="none" stroke="currentColor" stroke-width="1.5" stroke-linecap="round" stroke-linejoin="round">
      <path d="M6 3h8l4 4v14H6z"/><path d="M14 3v4h4"/><path d="M9.5 13c-1 0-1.5.7-1.5 1.6v1.2c0 .8-.4 1.2-1 1.2.6 0 1 .4 1 1.2v1.2c0 .9.5 1.6 1.5 1.6M14.5 13c1 0 1.5.7 1.5 1.6v1.2c0 .8.4 1.2 1 1.2-.6 0-1 .4-1 1.2v1.2c0 .9-.5 1.6-1.5 1.6"/>
    </g>
  </symbol>
  <symbol id="i-bell" viewBox="0 0 24 24">
    <g fill="none" stroke="currentColor" stroke-width="1.5" stroke-linecap="round" stroke-linejoin="round">
      <path d="M6 9.5a6 6 0 0 1 12 0c0 4 1.5 5.5 1.5 5.5h-15S6 13.5 6 9.5"/><path d="M10 19a2.2 2.2 0 0 0 4 0"/>
    </g>
  </symbol>
  <symbol id="i-merge" viewBox="0 0 24 24">
    <g fill="none" stroke="currentColor" stroke-width="1.5" stroke-linecap="round" stroke-linejoin="round">
      <circle cx="6" cy="6" r="2"/><circle cx="6" cy="18" r="2"/><circle cx="18" cy="12" r="2"/><path d="M6 8v8M8 6.5C12 8 12 10.5 16 11.4M8 17.5c4-1.5 4-4 8-5.1"/>
    </g>
  </symbol>
  <symbol id="i-users" viewBox="0 0 24 24">
    <g fill="none" stroke="currentColor" stroke-width="1.5" stroke-linecap="round" stroke-linejoin="round">
      <circle cx="9" cy="8" r="3"/><path d="M4 20c0-3 2.2-5 5-5s5 2 5 5"/><path d="M16 5.5a3 3 0 0 1 0 5.5M17.5 15.4c2 .6 3.5 2.3 3.5 4.6"/>
    </g>
  </symbol>
  <symbol id="i-db" viewBox="0 0 24 24">
    <g fill="none" stroke="currentColor" stroke-width="1.5" stroke-linecap="round" stroke-linejoin="round">
      <ellipse cx="12" cy="5.5" rx="7" ry="2.5"/><path d="M5 5.5v13c0 1.4 3.1 2.5 7 2.5s7-1.1 7-2.5v-13"/><path d="M5 12c0 1.4 3.1 2.5 7 2.5s7-1.1 7-2.5"/>
    </g>
  </symbol>
</svg>
